<?xml version="1.0" encoding="utf-8"?>
<!-- Generator: Adobe Illustrator 22.1.0, SVG Export Plug-In . SVG Version: 6.00 Build 0)  -->
<svg version="1.1" id="Layer_1" xmlns="http://www.w3.org/2000/svg" xmlns:xlink="http://www.w3.org/1999/xlink" x="0px" y="0px"
	 viewBox="0 0 288 925" style="enable-background:new 0 0 288 925;" xml:space="preserve">
<style type="text/css">
	.st0{fill:#354851;}
	.st1{fill:#314249;}
	.st2{fill:#F4F4F4;}
	.st3{fill:#E1E2E2;}
	.st4{fill:#9F9E9E;}
	.st5{fill:#FDCD81;}
	.st6{fill:#EAAB57;}
	.st7{fill:#594A42;}
	.st8{fill:#8B5E3C;}
	.st9{fill:#7C5235;}
	.st10{fill:#55707A;}
	.st11{fill:#455A66;}
	.st12{fill:#37474F;}
	.st13{fill:#CFDAE0;}
	.st14{fill:#BDBDBD;}
	.st15{fill:#757677;}
</style>
<g>
	<polygon class="st0" points="144.5,513.3 137.5,513.3 72,513.3 72,564.7 72,827.2 137.5,827.2 137.5,564.7 144.5,564.7 	"/>
	<polygon class="st1" points="217,513.3 217,513.3 151.5,513.3 144.5,513.3 144.5,564.7 151.5,564.7 151.5,827.2 217,827.2 
		217,564.7 217,564.7 	"/>
	<rect x="72" y="487" class="st2" width="145.1" height="22"/>
	<path class="st3" d="M159.4,488.4h-29.7c-3.7,0-6.8,3-6.8,6.8v19.4c0,3.7,3,6.8,6.8,6.8h29.7c3.7,0,6.8-3,6.8-6.8v-19.5
		C166.1,491.4,163.1,488.4,159.4,488.4z"/>
	<rect x="130.9" y="496.3" class="st4" width="27.3" height="17"/>
	<rect x="72" y="496.3" class="st4" width="50.9" height="17"/>
	<rect x="166.1" y="496.3" class="st4" width="50.9" height="17"/>
	<path class="st2" d="M190.4,272.9c-14-6.5-29.5-10.2-45.9-10.2l0,0c-16.4,0-32,3.7-45.9,10.2l45.9,115.4L190.4,272.9z"/>
	<path class="st0" d="M98.6,272.9c-9.7,4-18.7,9.2-26.6,15.4v199.9l49.6,19.3l23-14.6V374.3L98.6,272.9z"/>
	<path class="st1" d="M217,288.3c-7.9-6.2-16.9-11.4-26.6-15.4l-45.9,101.4v118.6l23.3,14.6l49.3-18.1V288.3H217z"/>
	<path class="st5" d="M51.5,143.8c-10.5,0-19,8.5-19,19l0,0c0,10.5,8.5,19,19,19H70v-38.1L51.5,143.8L51.5,143.8z"/>
	<path class="st5" d="M237.5,143.8c10.5,0,19,8.5,19,19l0,0c0,10.5-8.5,19-19,19H219v-38.1L237.5,143.8L237.5,143.8z"/>
	<rect x="115" y="216.6" class="st5" width="59" height="69"/>
	<path class="st6" d="M115,216.6v37.8c9.2,3.3,19.2,5.1,29.5,5.1s20.3-1.8,29.5-5.1v-37.8L115,216.6L115,216.6z"/>
	<path class="st5" d="M163.5,248.1h-38c-31.7,0-57.4-25.7-57.4-57.4V73.6c0-31.7,25.7-57.4,57.4-57.4h38c31.7,0,57.4,25.7,57.4,57.4
		v117.2C220.8,222.4,195.2,248.1,163.5,248.1z"/>
	<g>
		<circle class="st7" cx="110.6" cy="134.5" r="9.3"/>
		<circle class="st7" cx="178.4" cy="134.5" r="9.3"/>
	</g>
	<path class="st6" d="M144.5,180.8c7.9,0,14.3-6.4,14.3-14.3h-28.5C130.2,174.4,136.6,180.8,144.5,180.8z"/>
	<path class="st8" d="M144.5,4.8h-24.4c-10.4,0-18.8,8.4-18.8,18.8v3.3c0,37.5,30.4,68,68,68h51.5v71.7l0,0
		c7.9-7.9,12.4-18.7,12.4-29.9v-87c0-24.8-20.1-45-45-45h-43.7V4.8z"/>
	<path class="st9" d="M106.9,56.1c0,21.4-17.4,38.8-38.8,38.8l0,0v71.7l0,0c-7.9-7.9-12.4-18.7-12.4-29.9V55.9
		c0-23.6,15.9-43.4,37.6-49.3c6.9-1.9,13.6,3.4,13.6,10.5V56.1z"/>
	<g>
		<path class="st9" d="M124.9,111.8H92c-3.3,0-6-2.7-6-6s2.7-6,6-6h32.9c3.3,0,6,2.7,6,6S128.2,111.8,124.9,111.8z"/>
	</g>
	<g>
		<path class="st9" d="M197.1,111.8h-32.9c-3.3,0-6-2.7-6-6s2.7-6,6-6h32.9c3.3,0,6,2.7,6,6S200.4,111.8,197.1,111.8z"/>
	</g>
	<path class="st10" d="M153.9,274.5h-18.7c-2.9,0-5.3,2.4-5.3,5.3v18.7c0,2.9,2.4,5.3,5.3,5.3h18.7c2.9,0,5.3-2.4,5.3-5.3v-18.7
		C159.1,276.9,156.8,274.5,153.9,274.5z"/>
	<path class="st11" d="M129.9,299l-22.4,8.6c-4.7,1.8-9.8-1.7-9.8-6.7v-23.3c0-5.1,5.1-8.6,9.8-6.7l22.4,8.6V299z"/>
	<path class="st11" d="M159.1,299l22.4,8.6c4.7,1.8,9.8-1.7,9.8-6.7v-23.3c0-5.1-5.1-8.6-9.8-6.7l-22.4,8.6L159.1,299L159.1,299z"/>
	<path class="st12" d="M111.8,287.4c-1.1,0-2.1,0.9-2.1,2.1c0,1.1,0.9,2.1,2.1,2.1h18.1v-4.2H111.8z"/>
	<path class="st12" d="M177.2,287.4c1.1,0,2.1,0.9,2.1,2.1c0,1.1-0.9,2.1-2.1,2.1h-18.1v-4.2H177.2z"/>
	<circle class="st12" cx="144.5" cy="319.1" r="4.3"/>
	<circle class="st12" cx="144.5" cy="347.6" r="4.3"/>
	<circle class="st10" cx="133.2" cy="406.5" r="4.3"/>
	<circle class="st10" cx="133.2" cy="443.9" r="4.3"/>
	<circle class="st10" cx="133.2" cy="481.3" r="4.3"/>
	<g>
		<rect x="35.6" y="504.2" class="st13" width="36.4" height="35.9"/>
		<path class="st2" d="M35.6,371.7v132.5H72V290.4C49.6,310.4,35.6,339.4,35.6,371.7z"/>
		<path class="st2" d="M253.4,371.7c0-32.3-14.1-61.3-36.4-81.2v213.7h36.4V371.7z"/>
		<rect x="217" y="504.2" class="st13" width="36.4" height="35.9"/>
	</g>
	<rect x="68" y="827.2" class="st10" width="73.4" height="29.1"/>
	<rect x="147.9" y="827.2" class="st10" width="73.4" height="29.1"/>
	<path class="st14" d="M103.9,906.9C86.3,906.9,72,892.6,72,875v14.5c0,17.6,14.3,31.9,31.9,31.9s31.9-14.3,31.9-31.9V875
		C135.8,892.6,121.5,906.9,103.9,906.9z"/>
	<path class="st15" d="M72,875c0,17.6,14.3,31.9,31.9,31.9s31.9-14.3,31.9-31.9v-18.8H72V875z"/>
	<path class="st14" d="M184.6,906.9c-17.6,0-31.9-14.3-31.9-31.9v14.5c0,17.6,14.3,31.9,31.9,31.9c17.6,0,31.9-14.3,31.9-31.9V875
		C216.5,892.6,202.2,906.9,184.6,906.9z"/>
	<path class="st15" d="M152.7,875c0,17.6,14.3,31.9,31.9,31.9s31.9-14.3,31.9-31.9v-18.8h-63.9L152.7,875L152.7,875z"/>
	<path class="st5" d="M35.6,540.1v18.2c0,10,8.1,18.2,18.2,18.2l0,0c10,0,18.2-8.1,18.2-18.2v-18.2H35.6z"/>
	<path class="st5" d="M253.4,540.1v18.2c0,10-8.1,18.2-18.2,18.2l0,0c-10,0-18.2-8.1-18.2-18.2v-18.2H253.4z"/>
	<g>
		<path class="st7" d="M160.8,208.4h-32.6c-6.2,0-11.3-5.1-11.3-11.3c0-1.8,1.5-3.3,3.3-3.3s3.3,1.5,3.3,3.3c0,2.6,2.1,4.7,4.7,4.7
			h32.6c2.6,0,4.7-2.1,4.7-4.7c0-1.8,1.5-3.3,3.3-3.3s3.3,1.5,3.3,3.3C172.1,203.4,167,208.4,160.8,208.4z"/>
	</g>
</g>
</svg>
