<?xml version="1.0" encoding="utf-8"?>
<!-- Generator: Adobe Illustrator 22.1.0, SVG Export Plug-In . SVG Version: 6.00 Build 0)  -->
<svg version="1.1" xmlns="http://www.w3.org/2000/svg" xmlns:xlink="http://www.w3.org/1999/xlink" x="0px" y="0px"
	 viewBox="0 0 63.6 75.8" style="enable-background:new 0 0 63.6 75.8;" xml:space="preserve">
<style type="text/css">
	.st0{fill:none;stroke:#FFFFFF;stroke-width:3;stroke-miterlimit:10;}
	.st1{fill:#FFFFFF;stroke:#FFFFFF;stroke-miterlimit:10;}
</style>
<g id="Layer_2">
	<path class="st0" d="M10.7,37.9c0,1.3-1.7,28.7-1.7,28.7l3.4,4l9.2,1.3l11-0.3l8.5-2.6l2.2-4.2v-5.3L41.4,29"/>
	<path class="st0" d="M42.8,32.8c0.1,0,7.1,0,7.1,0l4.3,5.1l0.5,5.1l-2,6.3L48,56.4l-2.7,1.8"/>
</g>
<g id="Layer_3">
</g>
<g id="Layer_1">
	<path class="st1" d="M32.7,34.9c-0.4-0.1-5.8-1-6.3,0.5c-0.3,0.9,1.2,2.3,2.2,3c-0.2,1.4-0.6,3.1-1.8,3.7c-1.2,0.6-2.5-0.4-3.2,0.2
		c-0.6,0.7,0.5,1.9-0.1,3.3c-0.5,1.3-2,1.9-2.3,2c-2.2,0.8-5.2-0.2-5.9-2c-0.9-2.3,2.2-4.7,1.1-6.4c-0.7-1.2-2.3-0.4-3.5-1.8
		c-1.2-1.4,0-2.7-1.1-4.6c-1.3-2.3-4.1-1.9-4.2-3.4c-0.2-1.6,2.9-2.6,2.6-4.1c-0.2-1-1.8-0.8-3.2-2.2c-1.1-1.2-1.8-3.1-1.3-4.8
		c0.8-3.1,5-4.8,6.7-3.7c1.4,0.8,1.9,3.8,1.9,3.8c0,0,0,0,0,0c0,0,0.3-1,1-3.4c-0.9-1.9-0.7-4.2,0.6-5.9c1.3-1.7,3.5-2.5,5.6-2.1
		C23,7.3,24,7.9,24.5,8.4c2.5,2.3,2.7,7.4-0.1,12.5c0.2-0.9,2.2-9.6,6.1-12.1c0.9-0.6,1.5-0.9,2.1-0.9c2.1,0.1,3.3,3.4,3.5,3.9
		c0.6,1.6,0.6,3.1,0.4,4.2c2-0.4,3.9-0.9,5.9-1.3c1,0.3,1.9,0.8,2.2,1.6c0.7,2.2-4.2,5.4-3.5,6.8c0.3,0.5,1.1,0.2,1.7,0.9
		c0.8,0.9,0.9,2.8,0,3.8c-1.8,2-7.1-0.4-7.6,0.8c-0.3,0.7,1.5,1.6,1.4,3C36.6,32.9,34.6,34.1,32.7,34.9z"/>
	<g>
		<path d="M35,55.1c1.4,0,2.6-1.2,2.6-2.6v-0.1c0-1.4-1.2-2.6-2.6-2.6c-1.4,0-2.6,1.2-2.6,2.6v0.1C32.4,53.9,33.5,55.1,35,55.1z"/>
		<path d="M27.7,58.6h0.1c1.4,0,2.6-1.2,2.6-2.6s-1.2-2.6-2.6-2.6h-0.1c-1.4,0-2.6,1.2-2.6,2.6C25.1,57.4,26.3,58.6,27.7,58.6z"/>
		<path d="M33.6,60.8c0.7,0,1.4-0.3,1.9-0.8c0.5-0.5,0.8-1.2,0.8-1.9c0-0.7-0.3-1.3-0.8-1.8c-0.5-0.5-1.1-0.8-1.8-0.8c0,0,0,0,0,0
			c-0.8,0-1.5,0.3-2,0.8c-0.5,0.5-0.8,1.2-0.8,2c0,0.7,0.3,1.3,0.8,1.8C32.3,60.5,32.9,60.8,33.6,60.8z"/>
		<path d="M22,61.1c1.7,0,2.5-1.3,2.5-2.6c0-1.3-0.9-2.6-2.5-2.6s-2.5,1.3-2.5,2.6C19.4,59.8,20.3,61.1,22,61.1z"/>
		<path d="M32.2,65c0.6,0,1.1-0.2,1.5-0.7c0.3-0.4,0.5-0.8,0.5-1.4c0-1.1-0.9-2-2-2c-0.6,0-1.1,0.2-1.5,0.7
			c-0.3,0.4-0.5,0.8-0.5,1.4C30.2,64.1,31.1,65,32.2,65z"/>
		<path d="M57.1,40.9c0-3.7-1.2-7.1-4.3-9.2c-2.8-2-6.4-2.4-9.6-1.4c0-0.6-0.1-1.2-0.1-1.8c0.2-0.1,0.4-0.3,0.6-0.4
			c1.1-1.1,1.3-2.8,0.6-4.2c-0.4-0.7-1-1.3-1.6-1.8c-0.2-0.1-0.4-0.3-0.6-0.5c0.2-0.1,0.4-0.2,0.9-0.3c1.5-0.5,2.6-1.7,2.9-3.1
			c0.3-1.5-0.5-3.1-1.8-4.1c-1.7-1.2-3.3-0.5-4.3,0c-0.1,0.1-0.3,0.1-0.4,0.2c-0.2,0.1-0.9,0.5-1.3,0.6v-0.1c0-3,0-5.6-3.9-6.9
			c-1.9-0.6-3.7-0.2-5.5,1.3c-0.4,0.3-0.7,0.9-1.2,1.8c-0.2,0.3-0.4,0.8-0.7,1.2c0,0,0-0.1,0-0.1c-0.1-1.1-0.3-2.3-0.9-3.5
			c-1.1-2-3.4-3.3-5.8-3.2c-3.2,0.2-6.8,1.8-7.4,5.7c-0.1,0.9,0.3,1.7,0.6,2.3c0.2,0.3,0.4,0.7,0.4,0.9c0,0-0.1,0-0.2,0
			c-0.4,0-0.9-0.2-1.3-0.3c-0.6-0.2-1.3-0.4-2.1-0.4c-1.3,0.1-2.5,0.7-3.5,1.7c-2,2-2.4,3.8-1.5,6.2c0.7,1.7,1.7,3,3.3,4
			c-0.4,0.2-0.8,0.4-1.1,0.7c-1.5,1.4-0.7,3-0.5,3.6c0.5,1,1.1,1.8,1.9,2.4C8.1,42.6,6.7,53.2,6.5,63.8c-0.1,3,0.3,6.5,2.8,8.6
			c2.1,1.8,5.2,2.1,7.8,2.2c3.2,0.2,6.3,0.2,9.5,0.3c3.3,0.1,6.7,0.1,9.9-0.4c2.8-0.4,5.9-1.3,7.8-3.6c2-2.5,1.8-6.3,1.5-9.5
			C52.9,57.1,57,49.2,57.1,40.9z M44.5,52.2c-0.4-2.9-0.4-5.9-0.6-8.8c-0.1-2.6-0.2-5.1-0.4-7.7c2.2-0.6,4.9-0.8,6.5,1.1
			c1.4,1.6,1.6,4,1.4,6.1c-0.4,4.5-2.6,9.8-6.5,12.3C44.7,54.1,44.6,53.2,44.5,52.2z M8.4,27.3c0.2-0.2,0.7-0.4,1-0.5
			c0.8-0.3,1.5-0.6,1.5-1.3c0-0.2-0.1-0.7-0.7-1c-1.8-0.8-2.9-2-3.6-3.7C6,19.1,6.3,18,7.9,16.4c0.5-0.5,1.3-1.1,2.4-1.2
			c0,0,0.1,0,0.1,0c0.4,0,0.9,0.1,1.3,0.3c0.5,0.2,1.1,0.4,1.8,0.4c0.8,0,1.5-0.3,1.7-0.9c0.4-0.9-0.1-1.8-0.4-2.5
			c-0.2-0.5-0.5-0.9-0.4-1.2C14.9,7.6,19,7,20.2,7c1.7-0.1,3.4,0.8,4.1,2.3c0.5,0.9,0.6,1.9,0.7,2.8c0,0.5,0.1,1.7,1.2,2
			c1.2,0.4,1.9-1,2.7-2.5c0.2-0.5,0.6-1.2,0.8-1.3c1.3-1.1,2.5-1.4,3.8-0.9c2.7,0.9,2.7,2.4,2.7,5.3l0,0.4c0,0.2,0,0.6,0.3,0.9
			c0.9,1.1,2.6,0.2,3.5-0.3c0.1-0.1,0.3-0.1,0.3-0.2c1.2-0.6,1.8-0.7,2.6-0.1c0.9,0.6,1.3,1.6,1.2,2.5c-0.1,0.9-0.8,1.5-1.7,1.8
			c-1,0.3-2,0.7-2.2,1.6C40,22,40.5,22.5,41.1,23c0.1,0.1,0.3,0.2,0.4,0.3c0.5,0.4,1,0.8,1.2,1.2c0,0.1,0,0.1,0.1,0.2
			c0.2,0.4,0.2,0.8,0.1,1.2c-0.1,0.3-0.2,0.6-0.5,0.9c-0.2,0.2-0.6,0.3-1.1,0.4c-0.4,0.1-1,0.2-1.5,0.2c-0.6,0.1-1.2,0.1-1.7,0
			c-0.1,0-0.2,0-0.3,0c-0.6-0.1-1.7-0.3-2.5-0.1l0,0c-0.8,0.2-1,0.7-1.1,1c-0.2,0.8,0.4,1.6,0.9,2.1c0.7,0.7,0.7,1.9,0,2.6
			c-0.2,0.2-0.5,0.4-0.9,0.6c-1.2,0.5-2.6,0.4-4,0.3c-0.4,0-0.8,0-1.1-0.1c-0.3,0-3.3-0.1-3.7,1.3c-0.2,0.6,0.2,1.2,1.1,1.8
			c0.5,0.3,0.9,0.7,1.3,1.3c0.3,0.5,0.4,1.1,0.1,1.6c-0.2,0.5-0.8,0.9-1.4,1c-0.3,0-0.6,0-0.8,0.1c-0.1,0-0.2,0-0.4,0l-0.2,0
			c-0.2,0-0.3,0-0.4,0c-0.7,0-1.4,0-1.8,0.5c0,0,0,0,0,0c-0.4,0.5-0.3,1.1-0.2,1.7c0,0,0,0,0,0.1c0,0.2,0.1,0.4,0.2,0.5
			c0,0.1,0.1,0.1,0.1,0.2c0.2,1-0.8,3.2-1.7,3.7c-0.2,0.1-0.4,0.1-0.6,0.1c-2.2-0.3-3.8-1.2-4.9-2.8c-0.5-0.7-0.6-1.2-0.3-1.7
			c0.1-0.3,0.3-0.5,0.5-0.8c0.2-0.3,0.4-0.6,0.6-0.9c0.3-0.7,0.3-1.5,0-2.3c-0.4-0.9-1.1-1.6-2.2-2.1c-0.3-0.1-0.6-0.3-0.8-0.4
			c0,0,0,0-0.1,0c-0.5-0.3-0.8-0.6-1-1c-0.1-0.3,0-0.6,0.1-1.1c0.1-0.5,0.3-1.1,0.2-1.7c-0.1-0.5-0.4-1.1-1.5-1.5
			c-0.2-0.1-0.4-0.2-0.6-0.3c-0.7-0.3-1.2-0.7-1.6-1.3c-0.2-0.3-0.4-0.6-0.5-0.9C7.9,28,8,27.7,8.4,27.3z M14.9,39.9
			c0.2,0.4,0.2,0.8-0.3,1.4c-0.1,0.1-0.1,0.2-0.2,0.3c-0.4,0-0.7,0-1,0c0.1-0.9,0.1-1.9,0.2-2.8C14.3,39.1,14.7,39.4,14.9,39.9z
			 M29.4,40.6c0.5-1,0.4-2.2-0.2-3.2c-0.5-0.7-1-1.3-1.6-1.7c0.5-0.1,1-0.1,1.4-0.1c0.4,0,0.7,0,1.1,0.1c1.6,0.1,3.2,0.2,4.8-0.5
			c0.6-0.3,1.1-0.6,1.5-1c1.3-1.3,1.2-3.6-0.1-4.9c-0.1-0.1-0.2-0.2-0.3-0.3c0.4,0,0.9,0,1.4,0.1c0.2,0,0.5,0.1,0.8,0.1
			c0.3,4.1,0.4,8.2,0.6,12.3c-1.7-0.2-4.2-0.1-6.2,0c-0.7,0-1.4,0.1-1.9,0.1c-0.4,0-1,0-1.9,0C29.1,41.3,29.3,41,29.4,40.6z
			 M13.3,43.3c0.1,0,0.2,0,0.3,0c-0.1,0.9,0.1,1.7,0.7,2.6c1.4,2,3.4,3.2,6.1,3.5c0.1,0,0.2,0,0.4,0c0.4,0,0.9-0.1,1.3-0.3
			c1.6-0.9,2.9-3.8,2.5-5.5c0-0.1-0.1-0.3-0.1-0.4c1,0,1.9,0,2.7,0c1.7,0,3,0,3.6,0c0.5,0,1.2,0,1.9-0.1c1.9-0.1,4.8-0.2,6.2,0
			c0.1,1.5,0.1,3,0.2,4.5c0.2,3.7,1,7.3,1.3,10.9c0.2,2.9,0.3,5.9-2.3,7.7c-4,2.7-9.8,2.9-14.5,2.7c-2.6-0.1-5.3-0.1-7.8-1.1
			c-2.5-1-3.7-3.1-4-5.6c-0.5-4,0.2-8.4,0.7-12.4C12.8,47.7,13.1,45.5,13.3,43.3z M44,67.4c-0.5,2.9-3,4.3-5.6,5
			c-5.8,1.5-12,0.7-18,0.5c-2.8-0.1-6,0.1-8.6-1c-2.9-1.2-3.6-4.2-3.6-7.1C8,59,8.7,53.1,9.2,47.3c0.4-4.8,0.9-9.6,1.2-14.4
			c0,0,0.1,0,0.1,0c0.3,0.1,0.5,0.2,0.5,0.3c0.1,0.2,0,0.5-0.2,0.9c-0.2,0.6-0.4,1.4-0.1,2.3c0.3,0.7,0.7,1.1,1.3,1.5
			c-0.2,3.9-0.6,7.7-1.1,11.6c-0.5,4-1,8.2-0.8,12.3c0.2,2.6,1,5.1,3.1,6.7c2.1,1.6,4.9,1.9,7.4,2.1c5.3,0.4,11.2,0.4,16.2-1.7
			c2.2-0.9,4.3-2.5,4.9-4.9c0.9-3.6,0-7.6-0.5-11.2c-0.7-4.5-0.7-9-0.9-13.6c-0.1-3.3-0.3-6.7-0.5-10c0.5,0,1-0.1,1.5-0.2
			c0.3,3.6,0.5,7.2,0.6,10.8c0.2,4.8,0.3,9.6,1,14.4c0.3,2.2,0.7,4.4,1,6.7c0,0.1,0,0.2,0,0.3C44.3,63.3,44.3,65.4,44,67.4z
			 M45.5,59.6c-0.1-0.9-0.2-1.8-0.4-2.7c3.9-2.2,6.3-6.7,7.4-10.9c0.9-3.7,1.2-8.9-2.3-11.4c-2-1.4-4.5-1.3-6.8-0.7
			c0-0.6-0.1-1.3-0.1-1.9c3-0.9,6.2-0.6,8.8,1.3c2.9,2.2,3.5,5.5,3.3,8.9C55,49.2,51.4,55.7,45.5,59.6z"/>
	</g>
</g>
</svg>
