<?xml version="1.0" encoding="utf-8"?>
<!-- Generator: Adobe Illustrator 22.1.0, SVG Export Plug-In . SVG Version: 6.00 Build 0)  -->
<svg version="1.1" id="Layer_1" xmlns="http://www.w3.org/2000/svg" xmlns:xlink="http://www.w3.org/1999/xlink" x="0px" y="0px"
	 viewBox="0 0 205 447.9" style="enable-background:new 0 0 205 447.9;" xml:space="preserve">
<style type="text/css">
	.st0{display:none;}
	.st1{display:inline;fill:#F4F4F4;}
	.st2{display:inline;fill:#757677;}
	.st3{display:inline;fill:#5F6261;}
	.st4{display:inline;fill:#F2C790;}
	.st5{display:inline;fill:#FFDCA9;}
	.st6{display:inline;}
	.st7{fill:#F7C558;}
	.st8{display:inline;fill:#F3744F;}
	.st9{display:inline;fill:#E64F3C;}
	.st10{display:inline;fill:#BB312A;}
	.st11{display:inline;fill:#444444;}
	.st12{fill:#594A42;}
	.st13{display:inline;fill:#F7C558;}
	.st14{fill:#FFEFD3;}
	.st15{display:inline;fill:#E1E2E2;}
	.st16{fill:#FDCD81;}
	.st17{fill:#E1E2E2;}
	.st18{display:inline;fill:#FDCD81;}
	.st19{display:inline;fill:#EAAB57;}
	.st20{display:inline;fill:#455A66;}
	.st21{display:inline;fill:#594A42;}
	.st22{fill:#F4F4F4;}
	.st23{fill:#354851;}
	.st24{fill:#314249;}
	.st25{fill:#EAAB57;}
	.st26{fill:#050401;}
	.st27{fill:#55707A;}
	.st28{fill:#455A66;}
	.st29{fill:#37474F;}
</style>
<g class="st0">
	<rect x="43.1" y="418.9" class="st1" width="121.7" height="18.4"/>
	<path class="st1" d="M142.5,239.2c-11.7-5.5-24.8-8.5-38.5-8.5l0,0c-13.8,0-26.8,3.1-38.5,8.5l38.5,96.9L142.5,239.2z"/>
	<path class="st2" d="M65.4,239.2c-8.2,3.3-15.7,7.7-22.3,12.9v167.7L84.7,436l19.3-12.3v-99.5L65.4,239.2z"/>
	<path class="st3" d="M164.8,252.1c-6.6-5.2-14.2-9.6-22.3-12.9l-38.5,85v99.5l19.5,12.3l41.3-15.2V252.1z"/>
	<path class="st4" d="M25.9,130.9c-8.8,0-16,7.1-16,16l0,0c0,8.8,7.1,16,16,16h15.5V131H25.9V130.9z"/>
	<path class="st4" d="M181.9,130.9c8.8,0,16,7.1,16,16l0,0c0,8.8-7.1,16-16,16h-15.5V131h15.5V130.9z"/>
	<rect x="79.2" y="192" class="st5" width="49.5" height="57.9"/>
	<path class="st4" d="M79.2,192v31.7c7.7,2.8,16.1,4.3,24.7,4.3s17-1.5,24.7-4.3V192H79.2L79.2,192z"/>
	<path class="st5" d="M110.6,218.4H97.2c-31.7,0-57.4-25.7-57.4-57.4V81.2c0-31.7,25.7-57.4,57.4-57.4h13.4
		c31.7,0,57.4,25.7,57.4,57.4V161C168,192.7,142.3,218.4,110.6,218.4z"/>
	<path class="st4" d="M103.9,161.9c6.6,0,12-5.4,12-12H92C92,156.5,97.3,161.9,103.9,161.9z"/>
	<g class="st6">
		<path class="st7" d="M87.5,104.1H59.9c-2.8,0-5-2.2-5-5s2.2-5,5-5h27.6c2.8,0,5,2.2,5,5S90.2,104.1,87.5,104.1z"/>
	</g>
	<g class="st6">
		<path class="st7" d="M148,104.1h-27.6c-2.8,0-5-2.2-5-5s2.2-5,5-5H148c2.8,0,5,2.2,5,5S150.8,104.1,148,104.1z"/>
	</g>
	<path class="st8" d="M111.8,240.6H96.1c-2.4,0-4.4,2-4.4,4.4v15.7c0,2.4,2,4.4,4.4,4.4h15.7c2.4,0,4.4-2,4.4-4.4V245
		C116.2,242.6,114.2,240.6,111.8,240.6z"/>
	<path class="st9" d="M91.7,261.1l-18.8,7.3c-4,1.5-8.2-1.4-8.2-5.7v-19.6c0-4.3,4.3-7.2,8.2-5.7l18.8,7.3V261.1z"/>
	<path class="st9" d="M116.2,261.1l18.8,7.3c4,1.5,8.2-1.4,8.2-5.7v-19.6c0-4.3-4.3-7.2-8.2-5.7l-18.8,7.3V261.1z"/>
	<path class="st10" d="M76.5,251.4c-1,0-1.7,0.8-1.7,1.7c0,1,0.8,1.7,1.7,1.7h15.1v-3.5L76.5,251.4L76.5,251.4z"/>
	<path class="st10" d="M131.4,251.4c1,0,1.7,0.8,1.7,1.7c0,1-0.8,1.7-1.7,1.7h-15.1v-3.5L131.4,251.4L131.4,251.4z"/>
	
		<ellipse transform="matrix(0.1602 -0.9871 0.9871 0.1602 -187.1538 336.044)" class="st11" cx="103.9" cy="278" rx="3.6" ry="3.6"/>
	
		<ellipse transform="matrix(0.1602 -0.9871 0.9871 0.1602 -210.7454 356.1159)" class="st11" cx="103.9" cy="301.9" rx="3.6" ry="3.6"/>
	<circle class="st11" cx="94.4" cy="344" r="3.6"/>
	<circle class="st11" cx="94.4" cy="375.4" r="3.6"/>
	<circle class="st11" cx="94.4" cy="406.8" r="3.6"/>
	<path class="st1" d="M12.5,323.4v113.3h30.6V253.9C24.3,271,12.5,295.8,12.5,323.4z"/>
	<path class="st1" d="M195.3,323.4c0-27.6-11.8-52.4-30.5-69.5v182.8h30.5V323.4z"/>
	<g class="st6">
		<path class="st12" d="M117.6,185.1H90.2c-5.2,0-9.5-4.3-9.5-9.5c0-1.5,1.2-2.8,2.8-2.8s2.8,1.2,2.8,2.8c0,2.2,1.8,3.9,3.9,3.9
			h27.4c2.2,0,3.9-1.8,3.9-3.9c0-1.5,1.2-2.8,2.8-2.8s2.8,1.2,2.8,2.8C127.1,180.9,122.8,185.1,117.6,185.1z"/>
	</g>
	<path class="st13" d="M94.4,10.8L94.4,10.8c-32.5,0-58.9,36.4-58.9,68.9v58.8c0,5.1,2,9.9,5.6,13.5v-36.3l14-23.4l0,0
		c27,0,48.8-21.9,48.8-48.8V20.3C103.9,15.1,99.7,10.8,94.4,10.8z"/>
	<path class="st13" d="M113.5,10.8L113.5,10.8c32.5,0,58.9,36.4,58.9,68.9v58.8c0,5.1-2,9.9-5.6,13.5v-36.3l-14-23.4l0,0
		c-27,0-48.8-21.9-48.8-48.8V20.3C103.9,15.1,108.2,10.8,113.5,10.8z"/>
	<g class="st6">
		<path class="st14" d="M67.7,149.5L67.7,149.5c-14.8,0-26.9-12-26.9-26.9v-16.3h53.7v16.3C94.5,137.5,82.5,149.5,67.7,149.5z"/>
		<path class="st12" d="M103.9,107.2h-4.3v-0.8c0-2.8-2.3-5.1-5.1-5.1H40.8c-2.8,0-5.1,2.3-5.1,5.1v16.3c0,17.6,14.3,32,32,32
			s32-14.3,32-32v-9.2h4.3c1.7,0,3.1-1.4,3.1-3.1C107.1,108.6,105.7,107.2,103.9,107.2z M89.4,122.7c0,12-9.8,21.8-21.8,21.8
			s-21.8-9.8-21.8-21.8v-11.2h43.6L89.4,122.7L89.4,122.7z"/>
		<circle class="st12" cx="69.7" cy="124.9" r="4.9"/>
	</g>
	<g class="st6">
		<path class="st14" d="M140.2,149.5L140.2,149.5c14.8,0,26.9-12,26.9-26.9v-16.3h-53.7v16.3C113.3,137.5,125.4,149.5,140.2,149.5z"
			/>
		<path class="st12" d="M100.8,110.4c0,1.7,1.4,3.1,3.1,3.1h4.3v9.2c0,17.6,14.3,32,32,32c17.6,0,32-14.3,32-32v-16.3
			c0-2.8-2.3-5.1-5.1-5.1h-53.7c-2.8,0-5.1,2.3-5.1,5.1v0.8H104C102.2,107.2,100.8,108.6,100.8,110.4z M118.4,111.5H162v11.2
			c0,12-9.8,21.8-21.8,21.8s-21.8-9.8-21.8-21.8L118.4,111.5L118.4,111.5z"/>
		<circle class="st12" cx="138.1" cy="124.9" r="4.9"/>
	</g>
</g>
<g class="st0">
	<path class="st15" d="M165.7,262.4c0,0-14.2-11.2-22.3-14.7l0,0c-11.7-5.5-24.8-8.5-38.5-8.5l0,0c-13.8,0-26.8,3.1-38.5,8.5
		c-8.2,3.5-22.3,14.7-22.3,14.7s0,0-0.1,0.1v182.8h0.1v0.5h17.6h38.7h9.2h40.3h15.9v-0.5h0.1L165.7,262.4L165.7,262.4z"/>
	<g class="st6">
		<path class="st16" d="M13.4,331.9v113.3h30.5V326.4H13.6C13.5,328.2,13.4,330,13.4,331.9z"/>
		<path class="st17" d="M13.6,326.4h30.3v-63.9C26.5,278.4,15,301,13.6,326.4z"/>
		<path class="st17" d="M165.8,262.4v63.9h30.3C194.6,301,183.2,278.4,165.8,262.4z"/>
		<path class="st16" d="M165.8,326.4v118.8h30.5V331.9c0-1.8-0.1-3.7-0.2-5.5H165.8z"/>
	</g>
	<path class="st1" d="M80.1,242.6L75,257.5c-3.5,10.3,6.2,20.2,16.6,16.8l10.7-3.5L80.1,242.6z"/>
	<path class="st1" d="M129.6,242.6l5.1,14.9c3.5,10.3-6.2,20.2-16.6,16.8l-10.7-3.5L129.6,242.6z"/>
	<path class="st18" d="M26.8,139.4c-8.8,0-16,7.1-16,16l0,0c0,8.8,7.1,16,16,16h15.5v-31.9H26.8V139.4z"/>
	<path class="st18" d="M182.8,139.4c8.8,0,16,7.1,16,16l0,0c0,8.8-7.1,16-16,16h-15.5v-31.9h15.5V139.4z"/>
	<path class="st18" d="M104.8,270.8L104.8,270.8c-13.7,0-24.7-11.1-24.7-24.7v-45.6h49.5v45.6C129.6,259.7,118.5,270.8,104.8,270.8z
		"/>
	<path class="st19" d="M80.1,200.4v31.7c7.7,2.8,16.1,4.3,24.7,4.3c8.7,0,17-1.5,24.7-4.3v-31.7H80.1L80.1,200.4z"/>
	<path class="st18" d="M111.5,226.9H98.1c-31.7,0-57.4-25.7-57.4-57.4V89.7c0-31.7,25.7-57.4,57.4-57.4h13.4
		c31.7,0,57.4,25.7,57.4,57.4v79.8C168.9,201.2,143.2,226.9,111.5,226.9z"/>
	<g class="st6">
		<circle class="st12" cx="76.4" cy="131.6" r="7.8"/>
		<circle class="st12" cx="133.3" cy="131.6" r="7.8"/>
	</g>
	<path class="st19" d="M104.8,170.4c6.6,0,12-5.4,12-12H92.9C92.9,165,98.2,170.4,104.8,170.4z"/>
	<g class="st6">
		<path class="st12" d="M88.4,112.5H60.8c-2.8,0-5-2.2-5-5s2.2-5,5-5h27.6c2.8,0,5,2.2,5,5S91.1,112.5,88.4,112.5z"/>
	</g>
	<g class="st6">
		<path class="st12" d="M148.9,112.5h-27.6c-2.8,0-5-2.2-5-5s2.2-5,5-5h27.6c2.8,0,5,2.2,5,5C154,110.3,151.7,112.5,148.9,112.5z"/>
	</g>
	<g class="st6">
		<path class="st12" d="M118.5,193.6H91.1c-5.2,0-9.5-4.3-9.5-9.5c0-1.5,1.2-2.8,2.8-2.8c1.5,0,2.8,1.2,2.8,2.8
			c0,2.2,1.8,3.9,3.9,3.9h27.4c2.2,0,3.9-1.8,3.9-3.9c0-1.5,1.2-2.8,2.8-2.8c1.5,0,2.8,1.2,2.8,2.8
			C128,189.3,123.7,193.6,118.5,193.6z"/>
	</g>
	<circle class="st20" cx="104.8" cy="281.2" r="3.5"/>
	<circle class="st20" cx="104.8" cy="304.2" r="3.5"/>
	<path class="st21" d="M146.9,36.5L146.9,36.5c-6.4,0-12.6-2.6-17.1-7.1L104.9,4.2l0,0l0,0l0,0l0,0L80,29.4
		c-4.5,4.6-10.7,7.1-17.1,7.1c-15.1,0-27.3,12.2-27.3,27.3v78.6c0,8,1.8,15.9,5.3,23.1V97.3c0-5,4.1-9,9-9c4.1,0,7.3-3.3,7.3-7.3
		v-6.6c0-6.1,5-11.1,11.1-11.1h36.6h36.6c6.1,0,11.1,5,11.1,11.1V81c0,4.1,3.3,7.3,7.3,7.3l0,0c5,0,9,4.1,9,9v68.2
		c3.5-7.2,5.3-15.1,5.3-23.1V63.8C174.2,48.8,161.9,36.5,146.9,36.5z"/>
</g>
<g>
	<rect x="44" y="417.8" class="st22" width="121.7" height="18.4"/>
	<path class="st22" d="M143.4,238.1c-11.7-5.5-24.8-8.5-38.5-8.5l0,0c-13.8,0-26.8,3.1-38.5,8.5l38.5,96.9L143.4,238.1z"/>
	<path class="st23" d="M66.3,238.1c-8.2,3.3-15.7,7.7-22.3,12.9v167.7l41.6,16.2l19.3-12.3v-99.5L66.3,238.1z"/>
	<path class="st24" d="M165.7,251c-6.6-5.2-14.2-9.6-22.3-12.9l-38.5,85v99.5l19.5,12.3l41.3-15.2V251z"/>
	<path class="st16" d="M26.8,129.8c-8.8,0-16,7.1-16,16l0,0c0,8.8,7.1,16,16,16h15.5v-31.9H26.8V129.8z"/>
	<path class="st16" d="M182.8,129.8c8.8,0,16,7.1,16,16l0,0c0,8.8-7.1,16-16,16h-15.5v-31.9h15.5V129.8z"/>
	<rect x="80.1" y="190.9" class="st16" width="49.5" height="57.9"/>
	<path class="st25" d="M80.1,190.9v31.7c7.7,2.8,16.1,4.3,24.7,4.3c8.7,0,17-1.5,24.7-4.3v-31.7H80.1L80.1,190.9z"/>
	<path class="st16" d="M111.5,217.3H98.1c-31.7,0-57.4-25.7-57.4-57.4V80.1c0-31.7,25.7-57.4,57.4-57.4h13.4
		c31.7,0,57.4,25.7,57.4,57.4v79.8C168.9,191.6,143.2,217.3,111.5,217.3z"/>
	<g>
		<circle class="st12" cx="76.4" cy="122" r="7.8"/>
		<circle class="st12" cx="133.3" cy="122" r="7.8"/>
	</g>
	<path class="st25" d="M104.8,160.8c6.6,0,12-5.4,12-12H92.9C92.9,155.4,98.2,160.8,104.8,160.8z"/>
	<path class="st26" d="M104.8,13.1H84.4c-8.7,0-15.8,7.1-15.8,15.8v2.8c0,31.5,25.5,57,57,57h43.2v60.1l0,0
		c6.7-6.7,10.4-15.7,10.4-25.1V50.9c0-20.8-16.9-37.7-37.7-37.7h-36.7V13.1z"/>
	<path class="st26" d="M73.3,56.2c0,18-14.6,32.5-32.5,32.5l0,0v60.1l0,0c-6.7-6.7-10.4-15.7-10.4-25.1V56.1
		c0-19.8,13.4-36.4,31.5-41.4c5.7-1.6,11.4,2.9,11.4,8.8V56.2z"/>
	<g>
		<path class="st26" d="M88.4,103H60.8c-2.8,0-5-2.2-5-5s2.2-5,5-5h27.6c2.8,0,5,2.2,5,5S91.1,103,88.4,103z"/>
	</g>
	<g>
		<path class="st26" d="M148.9,103h-27.6c-2.8,0-5-2.2-5-5s2.2-5,5-5h27.6c2.8,0,5,2.2,5,5S151.7,103,148.9,103z"/>
	</g>
	<path class="st27" d="M112.7,239.5H97c-2.4,0-4.4,2-4.4,4.4v15.7c0,2.4,2,4.4,4.4,4.4h15.7c2.4,0,4.4-2,4.4-4.4v-15.7
		C117.1,241.5,115.1,239.5,112.7,239.5z"/>
	<path class="st28" d="M92.6,260l-18.8,7.3c-4,1.5-8.2-1.4-8.2-5.7V242c0-4.3,4.3-7.2,8.2-5.7l18.8,7.3
		C92.6,243.6,92.6,260,92.6,260z"/>
	<path class="st28" d="M117.1,260l18.8,7.3c4,1.5,8.2-1.4,8.2-5.7V242c0-4.3-4.3-7.2-8.2-5.7l-18.8,7.3
		C117.1,243.6,117.1,260,117.1,260z"/>
	<path class="st29" d="M77.4,250.3c-1,0-1.7,0.8-1.7,1.7c0,1,0.8,1.7,1.7,1.7h15.1v-3.5L77.4,250.3L77.4,250.3z"/>
	<path class="st29" d="M132.3,250.3c1,0,1.7,0.8,1.7,1.7c0,1-0.8,1.7-1.7,1.7h-15.1v-3.5L132.3,250.3L132.3,250.3z"/>
	<circle class="st29" cx="104.8" cy="276.9" r="3.6"/>
	<circle class="st29" cx="104.8" cy="300.8" r="3.6"/>
	<circle class="st27" cx="95.3" cy="350.2" r="3.6"/>
	<circle class="st27" cx="95.3" cy="381.6" r="3.6"/>
	<circle class="st27" cx="95.3" cy="413" r="3.6"/>
	<path class="st22" d="M13.4,322.3v113.3H44V252.8C25.2,269.9,13.4,294.7,13.4,322.3z"/>
	<path class="st22" d="M196.2,322.3c0-27.6-11.8-52.4-30.5-69.5v182.8h30.5V322.3z"/>
	<g>
		<path class="st12" d="M118.5,184H91.1c-5.2,0-9.5-4.3-9.5-9.5c0-1.5,1.2-2.8,2.8-2.8c1.5,0,2.8,1.2,2.8,2.8c0,2.2,1.8,3.9,3.9,3.9
			h27.4c2.2,0,3.9-1.8,3.9-3.9c0-1.5,1.2-2.8,2.8-2.8c1.5,0,2.8,1.2,2.8,2.8C128,179.8,123.7,184,118.5,184z"/>
	</g>
</g>
</svg>
