<?xml version="1.0" encoding="utf-8"?>
<!-- Generator: Adobe Illustrator 22.1.0, SVG Export Plug-In . SVG Version: 6.00 Build 0)  -->
<svg version="1.1" id="Layer_1" xmlns="http://www.w3.org/2000/svg" xmlns:xlink="http://www.w3.org/1999/xlink" x="0px" y="0px"
	 viewBox="0 0 205 447.9" style="enable-background:new 0 0 205 447.9;" xml:space="preserve">
<style type="text/css">
	.st0{fill:#F4F4F4;}
	.st1{fill:#757677;}
	.st2{fill:#5F6261;}
	.st3{fill:#F2C790;}
	.st4{fill:#FFDCA9;}
	.st5{fill:#F7C558;}
	.st6{fill:#F3744F;}
	.st7{fill:#E64F3C;}
	.st8{fill:#BB312A;}
	.st9{fill:#444444;}
	.st10{fill:#594A42;}
	.st11{fill:#FFEFD3;}
</style>
<g>
	<rect x="43.1" y="418.9" class="st0" width="121.7" height="18.4"/>
	<path class="st0" d="M142.5,239.2c-11.7-5.5-24.8-8.5-38.5-8.5l0,0c-13.8,0-26.8,3.1-38.5,8.5l38.5,96.9L142.5,239.2z"/>
	<path class="st1" d="M65.4,239.2c-8.2,3.3-15.7,7.7-22.3,12.9v167.7L84.7,436l19.3-12.3v-99.5L65.4,239.2z"/>
	<path class="st2" d="M164.8,252.1c-6.6-5.2-14.2-9.6-22.3-12.9l-38.5,85v99.5l19.5,12.3l41.3-15.2V252.1z"/>
	<path class="st3" d="M25.9,130.9c-8.8,0-16,7.1-16,16l0,0c0,8.8,7.1,16,16,16h15.5V131H25.9V130.9z"/>
	<path class="st3" d="M181.9,130.9c8.8,0,16,7.1,16,16l0,0c0,8.8-7.1,16-16,16h-15.5V131h15.5V130.9z"/>
	<rect x="79.2" y="192" class="st4" width="49.5" height="57.9"/>
	<path class="st3" d="M79.2,192v31.7c7.7,2.8,16.1,4.3,24.7,4.3s17-1.5,24.7-4.3V192L79.2,192L79.2,192z"/>
	<path class="st4" d="M110.6,218.4H97.2c-31.7,0-57.4-25.7-57.4-57.4V81.2c0-31.7,25.7-57.4,57.4-57.4h13.4
		c31.7,0,57.4,25.7,57.4,57.4V161C168,192.7,142.3,218.4,110.6,218.4z"/>
	<path class="st3" d="M103.9,161.9c6.6,0,12-5.4,12-12H92C92,156.5,97.3,161.9,103.9,161.9z"/>
	<g>
		<path class="st5" d="M87.5,104.1H59.9c-2.8,0-5-2.2-5-5s2.2-5,5-5h27.6c2.8,0,5,2.2,5,5S90.2,104.1,87.5,104.1z"/>
	</g>
	<g>
		<path class="st5" d="M148,104.1h-27.6c-2.8,0-5-2.2-5-5s2.2-5,5-5H148c2.8,0,5,2.2,5,5S150.8,104.1,148,104.1z"/>
	</g>
	<path class="st6" d="M111.8,240.6H96.1c-2.4,0-4.4,2-4.4,4.4v15.7c0,2.4,2,4.4,4.4,4.4h15.7c2.4,0,4.4-2,4.4-4.4V245
		C116.2,242.6,114.2,240.6,111.8,240.6z"/>
	<path class="st7" d="M91.7,261.1l-18.8,7.3c-4,1.5-8.2-1.4-8.2-5.7v-19.6c0-4.3,4.3-7.2,8.2-5.7l18.8,7.3V261.1z"/>
	<path class="st7" d="M116.2,261.1l18.8,7.3c4,1.5,8.2-1.4,8.2-5.7v-19.6c0-4.3-4.3-7.2-8.2-5.7l-18.8,7.3V261.1z"/>
	<path class="st8" d="M76.5,251.4c-1,0-1.7,0.8-1.7,1.7c0,1,0.8,1.7,1.7,1.7h15.1v-3.5L76.5,251.4L76.5,251.4z"/>
	<path class="st8" d="M131.4,251.4c1,0,1.7,0.8,1.7,1.7c0,1-0.8,1.7-1.7,1.7h-15.1v-3.5L131.4,251.4L131.4,251.4z"/>
	
		<ellipse transform="matrix(0.1602 -0.9871 0.9871 0.1602 -187.1462 336.0343)" class="st9" cx="103.9" cy="278" rx="3.6" ry="3.6"/>
	
		<ellipse transform="matrix(0.1602 -0.9871 0.9871 0.1602 -210.7376 356.106)" class="st9" cx="103.9" cy="301.9" rx="3.6" ry="3.6"/>
	<circle class="st9" cx="94.4" cy="344" r="3.6"/>
	<circle class="st9" cx="94.4" cy="375.4" r="3.6"/>
	<circle class="st9" cx="94.4" cy="406.8" r="3.6"/>
	<path class="st0" d="M12.5,323.4v113.3h30.6V253.9C24.3,271,12.5,295.8,12.5,323.4z"/>
	<path class="st0" d="M195.3,323.4c0-27.6-11.8-52.4-30.5-69.5v182.8h30.5V323.4z"/>
	<g>
		<path class="st10" d="M117.6,185.1H90.2c-5.2,0-9.5-4.3-9.5-9.5c0-1.5,1.2-2.8,2.8-2.8s2.8,1.2,2.8,2.8c0,2.2,1.8,3.9,3.9,3.9
			h27.4c2.2,0,3.9-1.8,3.9-3.9c0-1.5,1.2-2.8,2.8-2.8s2.8,1.2,2.8,2.8C127.1,180.9,122.8,185.1,117.6,185.1z"/>
	</g>
	<path class="st5" d="M94.4,10.8L94.4,10.8c-32.5,0-58.9,36.4-58.9,68.9v58.8c0,5.1,2,9.9,5.6,13.5v-36.3l14-23.4l0,0
		c27,0,48.8-21.9,48.8-48.8V20.3C103.9,15.1,99.7,10.8,94.4,10.8z"/>
	<path class="st5" d="M113.5,10.8L113.5,10.8c32.5,0,58.9,36.4,58.9,68.9v58.8c0,5.1-2,9.9-5.6,13.5v-36.3l-14-23.4l0,0
		c-27,0-48.8-21.9-48.8-48.8V20.3C103.9,15.1,108.2,10.8,113.5,10.8z"/>
	<g>
		<path class="st11" d="M67.7,149.5L67.7,149.5c-14.8,0-26.9-12-26.9-26.9v-16.3h53.7v16.3C94.5,137.5,82.5,149.5,67.7,149.5z"/>
		<path class="st10" d="M103.9,107.2h-4.3v-0.8c0-2.8-2.3-5.1-5.1-5.1H40.8c-2.8,0-5.1,2.3-5.1,5.1v16.3c0,17.6,14.3,32,32,32
			s32-14.3,32-32v-9.2h4.3c1.7,0,3.1-1.4,3.1-3.1C107.1,108.6,105.7,107.2,103.9,107.2z M89.4,122.7c0,12-9.8,21.8-21.8,21.8
			s-21.8-9.8-21.8-21.8v-11.2h43.6L89.4,122.7L89.4,122.7z"/>
		<circle class="st10" cx="69.7" cy="124.9" r="4.9"/>
	</g>
	<g>
		<path class="st11" d="M140.2,149.5L140.2,149.5c14.8,0,26.9-12,26.9-26.9v-16.3h-53.7v16.3C113.3,137.5,125.4,149.5,140.2,149.5z"
			/>
		<path class="st10" d="M100.8,110.4c0,1.7,1.4,3.1,3.1,3.1h4.3v9.2c0,17.6,14.3,32,32,32c17.6,0,32-14.3,32-32v-16.3
			c0-2.8-2.3-5.1-5.1-5.1h-53.7c-2.8,0-5.1,2.3-5.1,5.1v0.8H104C102.2,107.2,100.8,108.6,100.8,110.4z M118.4,111.5H162v11.2
			c0,12-9.8,21.8-21.8,21.8s-21.8-9.8-21.8-21.8L118.4,111.5L118.4,111.5z"/>
		<circle class="st10" cx="138.1" cy="124.9" r="4.9"/>
	</g>
</g>
</svg>
