<svg xmlns="http://www.w3.org/2000/svg" viewBox="0 0 400 400"><defs><style>.cls-1{fill:#2c3642;}.cls-2{fill:#fff;}</style></defs><title>overtime-avatar</title><g id="Layer_2" data-name="Layer 2"><g id="Layer_1-2" data-name="Layer 1"><circle class="cls-1" cx="200" cy="200" r="200"/><path class="cls-2" d="M227,66.39H173c-22.87,0-41.37,7-55,20.88-13.25,13.48-20,31.53-20,53.64V253.18c0,14.49,1.6,35.83,15.43,53.87,9.28,12.12,27.15,26.56,59.53,26.56h54a72.8,72.8,0,0,0,53.85-23c9.63-10.3,21.11-28.61,21.11-57.41V146.82c0-20-6.53-39-18.39-53.48A72.82,72.82,0,0,0,227,66.39Zm52.47,186.79c0,21.46-8.18,34.71-15,42.05A50.56,50.56,0,0,1,227,311.12H173c-18.63,0-32.66-6-41.68-17.75-9.67-12.61-10.79-29-10.79-40.19V140.91c0-16,4.55-28.75,13.52-37.88,9.23-9.39,22.34-14.15,39-14.15h54a49.74,49.74,0,0,1,39.15,18.68c8.59,10.52,13.32,24.47,13.32,39.26Z"/><path class="cls-2" d="M227,110.45H173c-21.08,0-30.9,9.68-30.9,30.46V253.18c0,13,2,21.35,6.34,27.07,4.86,6.35,12.67,9.3,24.56,9.3h54a29.21,29.21,0,0,0,21.67-9.05c6-6.46,9.23-15.9,9.23-27.32V146.82c0-9.84-3-18.93-8.46-25.61A28.54,28.54,0,0,0,227,110.45Zm6.61,155.13H166.16V134.42h67.43Z"/></g></g></svg>